<svg preserveAspectRatio="none" width="100%" height="100%" overflow="visible" style="display: block;" viewBox="0 0 18 18" fill="none" xmlns="http://www.w3.org/2000/svg">
<g id="Image">
<path id="Vector" d="M15.1875 2.8125H2.8125C2.51413 2.8125 2.22798 2.93103 2.017 3.142C1.80603 3.35298 1.6875 3.63913 1.6875 3.9375V14.0625C1.6875 14.3609 1.80603 14.647 2.017 14.858C2.22798 15.069 2.51413 15.1875 2.8125 15.1875H15.1875C15.4859 15.1875 15.772 15.069 15.983 14.858C16.194 14.647 16.3125 14.3609 16.3125 14.0625V3.9375C16.3125 3.63913 16.194 3.35298 15.983 3.142C15.772 2.93103 15.4859 2.8125 15.1875 2.8125ZM10.9688 6.1875C11.1356 6.1875 11.2988 6.23698 11.4375 6.3297C11.5763 6.42241 11.6844 6.55419 11.7483 6.70836C11.8121 6.86254 11.8288 7.03219 11.7963 7.19586C11.7637 7.35953 11.6834 7.50987 11.5654 7.62787C11.4474 7.74587 11.297 7.82623 11.1334 7.85879C10.9697 7.89134 10.8 7.87463 10.6459 7.81077C10.4917 7.74691 10.3599 7.63877 10.2672 7.50001C10.1745 7.36126 10.125 7.19813 10.125 7.03125C10.125 6.80747 10.2139 6.59286 10.3721 6.43463C10.5304 6.27639 10.745 6.1875 10.9688 6.1875ZM15.1875 14.0625H2.8125V11.2985L6.07078 8.03953C6.12302 7.98723 6.18506 7.94574 6.25335 7.91744C6.32163 7.88913 6.39483 7.87456 6.46875 7.87456C6.54267 7.87456 6.61587 7.88913 6.68415 7.91744C6.75244 7.94574 6.81448 7.98723 6.86672 8.03953L11.6016 12.773C11.7071 12.8785 11.8503 12.9378 11.9995 12.9378C12.1488 12.9378 12.292 12.8785 12.3975 12.773C12.503 12.6674 12.5623 12.5243 12.5623 12.375C12.5623 12.2257 12.503 12.0826 12.3975 11.977L11.1558 10.736L12.1641 9.72703C12.2695 9.62162 12.4126 9.56241 12.5617 9.56241C12.7108 9.56241 12.8538 9.62162 12.9593 9.72703L15.1875 11.958V14.0625Z" fill="var(--fill-0, #ECD3C2)"/>
</g>
</svg>
