<svg preserveAspectRatio="none" width="100%" height="100%" overflow="visible" style="display: block;" viewBox="0 0 24 24" fill="none" xmlns="http://www.w3.org/2000/svg">
<g id="CompassRose" clip-path="url(#clip0_2870_29807)">
<path id="Vector" d="M23.4313 11.2709L20.8954 10.6371C20.6073 8.74181 19.7208 6.98825 18.3652 5.63265C17.0096 4.27706 15.256 3.39049 13.3607 3.10246L12.7269 0.571213C12.6863 0.409043 12.5926 0.265102 12.4608 0.162253C12.329 0.059403 12.1666 0.00354212 11.9994 0.00354212C11.8322 0.00354212 11.6698 0.059403 11.538 0.162253C11.4062 0.265102 11.3126 0.409043 11.2719 0.571213L10.6382 3.10715C8.74284 3.39517 6.98927 4.28175 5.63368 5.63734C4.27809 6.99293 3.39151 8.7465 3.10349 10.6418L0.572241 11.2756C0.410071 11.3162 0.26613 11.4099 0.16328 11.5417C0.0604309 11.6735 0.00456994 11.8359 0.00456994 12.0031C0.00456994 12.1703 0.0604309 12.3327 0.16328 12.4645C0.26613 12.5963 0.410071 12.6899 0.572241 12.7306L3.10818 13.3643C3.3962 15.2597 4.28278 17.0132 5.63837 18.3688C6.99396 19.7244 8.74753 20.611 10.6429 20.899L11.2766 23.435C11.3173 23.5971 11.4109 23.7411 11.5427 23.8439C11.6745 23.9468 11.8369 24.0026 12.0041 24.0026C12.1713 24.0026 12.3337 23.9468 12.4655 23.8439C12.5973 23.7411 12.691 23.5971 12.7316 23.435L13.3654 20.899C15.2607 20.611 17.0143 19.7244 18.3699 18.3688C19.7255 17.0132 20.612 15.2597 20.9001 13.3643L23.436 12.7306C23.5982 12.6899 23.7421 12.5963 23.8449 12.4645C23.9478 12.3327 24.0037 12.1703 24.0037 12.0031C24.0037 11.8359 23.9478 11.6735 23.8449 11.5417C23.7421 11.4099 23.5982 11.3162 23.436 11.2756L23.4313 11.2709ZM19.2904 10.2396L14.8682 9.12965L13.7619 4.70746C15.1033 5.0303 16.3293 5.7174 17.3049 6.69295C18.2804 7.66849 18.9675 8.89457 19.2904 10.2359V10.2396ZM10.2369 4.7084L9.13068 9.12965L4.70849 10.2359C5.03133 8.89457 5.71843 7.66849 6.69397 6.69295C7.66952 5.7174 8.8956 5.0303 10.2369 4.70746V4.7084ZM4.70568 13.7618L9.13068 14.8671L10.2369 19.2893C8.8956 18.9665 7.66952 18.2794 6.69397 17.3039C5.71843 16.3283 5.03133 15.1022 4.70849 13.7609L4.70568 13.7618ZM13.7591 19.2931L14.8654 14.8709L19.2876 13.7646C18.9643 15.1049 18.2774 16.33 17.3024 17.3048C16.3274 18.2796 15.1023 18.9663 13.7619 19.2893L13.7591 19.2931Z" fill="url(#paint0_linear_2870_29807)"/>
</g>
<defs>
<linearGradient id="paint0_linear_2870_29807" x1="12.0041" y1="0.00354212" x2="12.0041" y2="24.0026" gradientUnits="userSpaceOnUse">
<stop stop-color="#386CF4"/>
<stop offset="1" stop-color="#A4BDFE"/>
</linearGradient>
<clipPath id="clip0_2870_29807">
<rect width="24" height="24" fill="white"/>
</clipPath>
</defs>
</svg>
