<svg preserveAspectRatio="none" width="100%" height="100%" overflow="visible" style="display: block;" viewBox="0 0 18 18" fill="none" xmlns="http://www.w3.org/2000/svg">
<g id="Paperclip">
<path id="Vector" d="M9 1.6875C7.55372 1.6875 6.13993 2.11637 4.93739 2.91988C3.73486 3.72339 2.7976 4.86544 2.24413 6.20163C1.69067 7.53781 1.54585 9.00811 1.82801 10.4266C2.11016 11.8451 2.80661 13.148 3.82928 14.1707C4.85195 15.1934 6.15492 15.8898 7.5734 16.172C8.99189 16.4541 10.4622 16.3093 11.7984 15.7559C13.1346 15.2024 14.2766 14.2651 15.0801 13.0626C15.8836 11.8601 16.3125 10.4463 16.3125 9C16.3105 7.06123 15.5394 5.20246 14.1685 3.83154C12.7975 2.46063 10.9388 1.68955 9 1.6875ZM11.648 5.22703C11.5957 5.17473 11.5337 5.13324 11.4654 5.10494C11.3971 5.07663 11.3239 5.06206 11.25 5.06206C11.1761 5.06206 11.1029 5.07663 11.0346 5.10494C10.9663 5.13324 10.9043 5.17473 10.852 5.22703L6.12352 10.0547C5.96654 10.2112 5.84195 10.3972 5.75684 10.6019C5.67173 10.8066 5.62777 11.0261 5.62747 11.2478C5.62718 11.4695 5.67056 11.689 5.75512 11.894C5.83969 12.0989 5.9638 12.2852 6.12035 12.4421C6.27691 12.5991 6.46285 12.7237 6.66755 12.8088C6.87226 12.8939 7.09173 12.9379 7.31343 12.9382C7.53512 12.9385 7.75471 12.8951 7.95964 12.8105C8.16457 12.726 8.35084 12.6019 8.50781 12.4453L11.9756 8.90719C12.0269 8.85242 12.0885 8.80845 12.157 8.77786C12.2254 8.74727 12.2993 8.73067 12.3743 8.72906C12.4493 8.72744 12.5238 8.74083 12.5935 8.76844C12.6633 8.79605 12.7268 8.83732 12.7803 8.88983C12.8338 8.94234 12.8763 9.00502 12.9053 9.07419C12.9343 9.14336 12.9491 9.21763 12.9489 9.29262C12.9488 9.36761 12.9336 9.44181 12.9044 9.51086C12.8751 9.57991 12.8324 9.64241 12.7786 9.69469L9.30727 13.237C9.04744 13.5032 8.73739 13.7152 8.39507 13.8608C8.05275 14.0063 7.68495 14.0826 7.31298 14.085C6.94101 14.0874 6.57225 14.016 6.22805 13.875C5.88385 13.7339 5.57105 13.526 5.30776 13.2632C5.04448 13.0004 4.83594 12.688 4.69421 12.3441C4.55248 12.0002 4.48039 11.6316 4.4821 11.2596C4.48381 10.8876 4.55929 10.5197 4.70418 10.1771C4.84907 9.83447 5.06048 9.52401 5.32617 9.26367L10.0547 4.43602C10.2112 4.27904 10.3972 4.15445 10.6019 4.06934C10.8066 3.98423 11.0261 3.94027 11.2478 3.93997C11.4695 3.93968 11.689 3.98306 11.894 4.06762C12.0989 4.15219 12.2852 4.2763 12.4421 4.43285C12.5991 4.58941 12.7237 4.77535 12.8088 4.98005C12.8939 5.18476 12.9379 5.40423 12.9382 5.62593C12.9385 5.84762 12.8951 6.06721 12.8105 6.27214C12.726 6.47707 12.6019 6.66334 12.4453 6.82031L7.71398 11.6438C7.66276 11.6985 7.6011 11.7425 7.53263 11.7731C7.46417 11.8037 7.39028 11.8203 7.3153 11.8219C7.24033 11.8235 7.16579 11.8101 7.09607 11.7825C7.02635 11.7549 6.96285 11.7136 6.90931 11.6611C6.85577 11.6086 6.81327 11.5459 6.78431 11.4767C6.75535 11.4076 6.74051 11.3333 6.74067 11.2583C6.74083 11.1833 6.75598 11.1091 6.78524 11.0401C6.81449 10.971 6.85725 10.9085 6.91102 10.8562L11.6438 6.02648C11.6969 5.97446 11.7391 5.91242 11.7681 5.84396C11.7971 5.7755 11.8122 5.70198 11.8126 5.62764C11.813 5.5533 11.7986 5.47962 11.7704 5.41085C11.7421 5.34209 11.7005 5.27961 11.648 5.22703Z" fill="var(--fill-0, #ECD3C2)"/>
</g>
</svg>
