<svg preserveAspectRatio="none" width="100%" height="100%" overflow="visible" style="display: block;" viewBox="0 0 18 18" fill="none" xmlns="http://www.w3.org/2000/svg">
<g id="Steps">
<path id="Vector" d="M16.875 3.9375V14.0625C16.875 14.2117 16.8157 14.3548 16.7102 14.4602C16.6048 14.5657 16.4617 14.625 16.3125 14.625H0.5625C0.413316 14.625 0.270242 14.5657 0.164752 14.4602C0.0592632 14.3548 0 14.2117 0 14.0625C0 13.9133 0.0592632 13.7702 0.164752 13.6648C0.270242 13.5593 0.413316 13.5 0.5625 13.5H3.9375V10.6875C3.9375 10.5383 3.99676 10.3952 4.10225 10.2898C4.20774 10.1843 4.35082 10.125 4.5 10.125H7.875V7.3125C7.875 7.16332 7.93426 7.02024 8.03975 6.91475C8.14524 6.80926 8.28832 6.75 8.4375 6.75H11.8125V3.9375C11.8125 3.78832 11.8718 3.64524 11.9773 3.53975C12.0827 3.43426 12.2258 3.375 12.375 3.375H16.3125C16.4617 3.375 16.6048 3.43426 16.7102 3.53975C16.8157 3.64524 16.875 3.78832 16.875 3.9375Z" fill="var(--fill-0, #ECD3C2)"/>
</g>
</svg>
