<svg preserveAspectRatio="none" width="100%" height="100%" overflow="visible" style="display: block;" viewBox="0 0 18 18" fill="none" xmlns="http://www.w3.org/2000/svg">
<g id="Check">
<path id="Vector" d="M15.1875 2.8125H2.8125C2.51413 2.8125 2.22798 2.93103 2.017 3.142C1.80603 3.35298 1.6875 3.63913 1.6875 3.9375V14.0625C1.6875 14.3609 1.80603 14.647 2.017 14.858C2.22798 15.069 2.51413 15.1875 2.8125 15.1875H15.1875C15.4859 15.1875 15.772 15.069 15.983 14.858C16.194 14.647 16.3125 14.3609 16.3125 14.0625V3.9375C16.3125 3.63913 16.194 3.35298 15.983 3.142C15.772 2.93103 15.4859 2.8125 15.1875 2.8125ZM14.4605 6.02297L7.71047 12.773C7.65823 12.8253 7.59619 12.8668 7.5279 12.8951C7.45962 12.9234 7.38642 12.9379 7.3125 12.9379C7.23858 12.9379 7.16538 12.9234 7.0971 12.8951C7.02881 12.8668 6.96677 12.8253 6.91453 12.773L4.10203 9.96047C3.99648 9.85492 3.93719 9.71177 3.93719 9.5625C3.93719 9.41323 3.99648 9.27008 4.10203 9.16453C4.20758 9.05898 4.35073 8.99969 4.5 8.99969C4.64927 8.99969 4.79242 9.05898 4.89797 9.16453L7.3125 11.5798L13.6645 5.22703C13.7701 5.12148 13.9132 5.06219 14.0625 5.06219C14.2118 5.06219 14.3549 5.12148 14.4605 5.22703C14.566 5.33258 14.6253 5.47573 14.6253 5.625C14.6253 5.77427 14.566 5.91742 14.4605 6.02297Z" fill="var(--fill-0, #ECD3C2)"/>
</g>
</svg>
