<svg preserveAspectRatio="none" width="100%" height="100%" overflow="visible" style="display: block;" viewBox="0 0 18 18" fill="none" xmlns="http://www.w3.org/2000/svg">
<g id="RectangleDashed">
<path id="Vector" d="M15.1875 2.8125H2.8125C2.51413 2.8125 2.22798 2.93103 2.017 3.142C1.80603 3.35298 1.6875 3.63913 1.6875 3.9375V14.0625C1.6875 14.3609 1.80603 14.647 2.017 14.858C2.22798 15.069 2.51413 15.1875 2.8125 15.1875H15.1875C15.4859 15.1875 15.772 15.069 15.983 14.858C16.194 14.647 16.3125 14.3609 16.3125 14.0625V3.9375C16.3125 3.63913 16.194 3.35298 15.983 3.142C15.772 2.93103 15.4859 2.8125 15.1875 2.8125ZM5.625 13.5H4.5C4.20163 13.5 3.91548 13.3815 3.7045 13.1705C3.49353 12.9595 3.375 12.6734 3.375 12.375V10.125C3.375 9.97582 3.43426 9.83274 3.53975 9.72725C3.64524 9.62176 3.78832 9.5625 3.9375 9.5625C4.08668 9.5625 4.22976 9.62176 4.33525 9.72725C4.44074 9.83274 4.5 9.97582 4.5 10.125V12.375H5.625C5.77418 12.375 5.91726 12.4343 6.02275 12.5398C6.12824 12.6452 6.1875 12.7883 6.1875 12.9375C6.1875 13.0867 6.12824 13.2298 6.02275 13.3352C5.91726 13.4407 5.77418 13.5 5.625 13.5ZM5.625 5.625H4.5V7.875C4.5 8.02418 4.44074 8.16726 4.33525 8.27275C4.22976 8.37824 4.08668 8.4375 3.9375 8.4375C3.78832 8.4375 3.64524 8.37824 3.53975 8.27275C3.43426 8.16726 3.375 8.02418 3.375 7.875V5.625C3.375 5.32663 3.49353 5.04048 3.7045 4.82951C3.91548 4.61853 4.20163 4.5 4.5 4.5H5.625C5.77418 4.5 5.91726 4.55926 6.02275 4.66475C6.12824 4.77024 6.1875 4.91332 6.1875 5.0625C6.1875 5.21168 6.12824 5.35476 6.02275 5.46025C5.91726 5.56574 5.77418 5.625 5.625 5.625ZM10.125 13.5H7.875C7.72582 13.5 7.58274 13.4407 7.47725 13.3352C7.37176 13.2298 7.3125 13.0867 7.3125 12.9375C7.3125 12.7883 7.37176 12.6452 7.47725 12.5398C7.58274 12.4343 7.72582 12.375 7.875 12.375H10.125C10.2742 12.375 10.4173 12.4343 10.5227 12.5398C10.6282 12.6452 10.6875 12.7883 10.6875 12.9375C10.6875 13.0867 10.6282 13.2298 10.5227 13.3352C10.4173 13.4407 10.2742 13.5 10.125 13.5ZM10.125 5.625H7.875C7.72582 5.625 7.58274 5.56574 7.47725 5.46025C7.37176 5.35476 7.3125 5.21168 7.3125 5.0625C7.3125 4.91332 7.37176 4.77024 7.47725 4.66475C7.58274 4.55926 7.72582 4.5 7.875 4.5H10.125C10.2742 4.5 10.4173 4.55926 10.5227 4.66475C10.6282 4.77024 10.6875 4.91332 10.6875 5.0625C10.6875 5.21168 10.6282 5.35476 10.5227 5.46025C10.4173 5.56574 10.2742 5.625 10.125 5.625ZM14.625 12.375C14.625 12.6734 14.5065 12.9595 14.2955 13.1705C14.0845 13.3815 13.7984 13.5 13.5 13.5H12.375C12.2258 13.5 12.0827 13.4407 11.9773 13.3352C11.8718 13.2298 11.8125 13.0867 11.8125 12.9375C11.8125 12.7883 11.8718 12.6452 11.9773 12.5398C12.0827 12.4343 12.2258 12.375 12.375 12.375H13.5V10.125C13.5 9.97582 13.5593 9.83274 13.6648 9.72725C13.7702 9.62176 13.9133 9.5625 14.0625 9.5625C14.2117 9.5625 14.3548 9.62176 14.4602 9.72725C14.5657 9.83274 14.625 9.97582 14.625 10.125V12.375ZM14.625 7.875C14.625 8.02418 14.5657 8.16726 14.4602 8.27275C14.3548 8.37824 14.2117 8.4375 14.0625 8.4375C13.9133 8.4375 13.7702 8.37824 13.6648 8.27275C13.5593 8.16726 13.5 8.02418 13.5 7.875V5.625H12.375C12.2258 5.625 12.0827 5.56574 11.9773 5.46025C11.8718 5.35476 11.8125 5.21168 11.8125 5.0625C11.8125 4.91332 11.8718 4.77024 11.9773 4.66475C12.0827 4.55926 12.2258 4.5 12.375 4.5H13.5C13.7984 4.5 14.0845 4.61853 14.2955 4.82951C14.5065 5.04048 14.625 5.32663 14.625 5.625V7.875Z" fill="var(--fill-0, #ECD3C2)"/>
</g>
</svg>
