<svg preserveAspectRatio="none" width="100%" height="100%" overflow="visible" style="display: block;" viewBox="0 0 18 18" fill="none" xmlns="http://www.w3.org/2000/svg">
<g id="ListMagnifyingGlass">
<path id="Vector" d="M2.25 4.5C2.25 4.35082 2.30926 4.20774 2.41475 4.10225C2.52024 3.99676 2.66332 3.9375 2.8125 3.9375H15.1875C15.3367 3.9375 15.4798 3.99676 15.5852 4.10225C15.6907 4.20774 15.75 4.35082 15.75 4.5C15.75 4.64918 15.6907 4.79226 15.5852 4.89775C15.4798 5.00324 15.3367 5.0625 15.1875 5.0625H2.8125C2.66332 5.0625 2.52024 5.00324 2.41475 4.89775C2.30926 4.79226 2.25 4.64918 2.25 4.5ZM2.8125 9.5625H7.875C8.02418 9.5625 8.16726 9.50324 8.27275 9.39775C8.37824 9.29226 8.4375 9.14918 8.4375 9C8.4375 8.85082 8.37824 8.70774 8.27275 8.60225C8.16726 8.49676 8.02418 8.4375 7.875 8.4375H2.8125C2.66332 8.4375 2.52024 8.49676 2.41475 8.60225C2.30926 8.70774 2.25 8.85082 2.25 9C2.25 9.14918 2.30926 9.29226 2.41475 9.39775C2.52024 9.50324 2.66332 9.5625 2.8125 9.5625ZM9 12.9375H2.8125C2.66332 12.9375 2.52024 12.9968 2.41475 13.1023C2.30926 13.2077 2.25 13.3508 2.25 13.5C2.25 13.6492 2.30926 13.7923 2.41475 13.8977C2.52024 14.0032 2.66332 14.0625 2.8125 14.0625H9C9.14919 14.0625 9.29226 14.0032 9.39775 13.8977C9.50324 13.7923 9.5625 13.6492 9.5625 13.5C9.5625 13.3508 9.50324 13.2077 9.39775 13.1023C9.29226 12.9968 9.14919 12.9375 9 12.9375ZM16.7105 13.102L15.2831 11.6719C15.6668 11.0903 15.821 10.3869 15.7158 9.69816C15.6105 9.00938 15.2533 8.38419 14.7134 7.94373C14.1735 7.50327 13.4893 7.27891 12.7934 7.31412C12.0975 7.34932 11.4395 7.64159 10.9468 8.13429C10.4541 8.62699 10.1618 9.28503 10.1266 9.98092C10.0914 10.6768 10.3158 11.361 10.7562 11.9009C11.1967 12.4408 11.8219 12.798 12.5107 12.9033C13.1994 13.0085 13.9028 12.8543 14.4844 12.4706L15.9117 13.898C16.0173 14.0035 16.1604 14.0628 16.3097 14.0628C16.459 14.0628 16.6021 14.0035 16.7077 13.898C16.8132 13.7924 16.8725 13.6493 16.8725 13.5C16.8725 13.3507 16.8132 13.2076 16.7077 13.102H16.7105Z" fill="var(--fill-0, #ECD3C2)"/>
</g>
</svg>
