<svg preserveAspectRatio="none" width="100%" height="100%" overflow="visible" style="display: block;" viewBox="0 0 18 18" fill="none" xmlns="http://www.w3.org/2000/svg">
<g id="Textbox">
<path id="Vector" d="M17.4375 5.625V12.375C17.4375 12.6734 17.319 12.9595 17.108 13.1705C16.897 13.3815 16.6109 13.5 16.3125 13.5H9.84375C9.76916 13.5 9.69762 13.4704 9.64488 13.4176C9.59213 13.3649 9.5625 13.2933 9.5625 13.2188V4.78125C9.5625 4.70666 9.59213 4.63512 9.64488 4.58238C9.69762 4.52963 9.76916 4.5 9.84375 4.5H16.3125C16.6109 4.5 16.897 4.61853 17.108 4.82951C17.319 5.04048 17.4375 5.32663 17.4375 5.625ZM8.4375 3.375V14.625C8.4375 14.7742 8.37824 14.9173 8.27275 15.0227C8.16726 15.1282 8.02418 15.1875 7.875 15.1875C7.72582 15.1875 7.58274 15.1282 7.47725 15.0227C7.37176 14.9173 7.3125 14.7742 7.3125 14.625V13.5H1.6875C1.38913 13.5 1.10298 13.3815 0.892005 13.1705C0.681026 12.9595 0.5625 12.6734 0.5625 12.375V5.625C0.5625 5.32663 0.681026 5.04048 0.892005 4.82951C1.10298 4.61853 1.38913 4.5 1.6875 4.5H7.3125V3.375C7.3125 3.22582 7.37176 3.08274 7.47725 2.97725C7.58274 2.87176 7.72582 2.8125 7.875 2.8125C8.02418 2.8125 8.16726 2.87176 8.27275 2.97725C8.37824 3.08274 8.4375 3.22582 8.4375 3.375ZM6.1875 7.875C6.1875 7.72582 6.12824 7.58274 6.02275 7.47725C5.91726 7.37176 5.77418 7.3125 5.625 7.3125H3.375C3.22582 7.3125 3.08274 7.37176 2.97725 7.47725C2.87176 7.58274 2.8125 7.72582 2.8125 7.875C2.8125 8.02418 2.87176 8.16726 2.97725 8.27275C3.08274 8.37824 3.22582 8.4375 3.375 8.4375H3.9375V10.125C3.9375 10.2742 3.99676 10.4173 4.10225 10.5227C4.20774 10.6282 4.35082 10.6875 4.5 10.6875C4.64918 10.6875 4.79226 10.6282 4.89775 10.5227C5.00324 10.4173 5.0625 10.2742 5.0625 10.125V8.4375H5.625C5.77418 8.4375 5.91726 8.37824 6.02275 8.27275C6.12824 8.16726 6.1875 8.02418 6.1875 7.875Z" fill="var(--fill-0, #ECD3C2)"/>
</g>
</svg>
