<svg preserveAspectRatio="none" width="100%" height="100%" overflow="visible" style="display: block;" viewBox="0 0 18 18" fill="none" xmlns="http://www.w3.org/2000/svg">
<g id="NumberCircleFive">
<path id="Vector" d="M9 1.6875C7.55372 1.6875 6.13993 2.11637 4.93739 2.91988C3.73486 3.72339 2.7976 4.86544 2.24413 6.20163C1.69067 7.53781 1.54585 9.00811 1.82801 10.4266C2.11016 11.8451 2.80661 13.148 3.82928 14.1707C4.85195 15.1934 6.15492 15.8898 7.5734 16.172C8.99189 16.4541 10.4622 16.3093 11.7984 15.7559C13.1346 15.2024 14.2766 14.2651 15.0801 13.0626C15.8836 11.8601 16.3125 10.4463 16.3125 9C16.3105 7.06123 15.5394 5.20246 14.1685 3.83154C12.7975 2.46063 10.9388 1.68955 9 1.6875ZM8.71875 7.875C9.39008 7.875 10.0339 8.14168 10.5086 8.61639C10.9833 9.09109 11.25 9.73492 11.25 10.4062C11.25 11.0776 10.9833 11.7214 10.5086 12.1961C10.0339 12.6708 9.39008 12.9375 8.71875 12.9375C8.3838 12.943 8.05116 12.8811 7.74061 12.7555C7.43006 12.6299 7.14794 12.4431 6.91102 12.2063C6.85725 12.154 6.81449 12.0915 6.78524 12.0224C6.75598 11.9534 6.74083 11.8792 6.74067 11.8042C6.74051 11.7292 6.75535 11.6549 6.78431 11.5858C6.81327 11.5166 6.85577 11.4539 6.90931 11.4014C6.96285 11.3489 7.02635 11.3076 7.09607 11.28C7.16579 11.2524 7.24033 11.239 7.3153 11.2406C7.39028 11.2422 7.46417 11.2588 7.53263 11.2894C7.6011 11.32 7.66276 11.364 7.71398 11.4187C7.84666 11.5482 8.00394 11.6497 8.17651 11.7173C8.34908 11.785 8.53346 11.8173 8.71875 11.8125C9.09171 11.8125 9.4494 11.6643 9.71312 11.4006C9.97684 11.1369 10.125 10.7792 10.125 10.4062C10.125 10.0333 9.97684 9.6756 9.71312 9.41188C9.4494 9.14816 9.09171 9 8.71875 9C8.53346 8.99518 8.34908 9.02754 8.17651 9.09517C8.00394 9.1628 7.84666 9.26432 7.71398 9.39375C7.63018 9.47912 7.52135 9.53554 7.40329 9.55484C7.28523 9.57413 7.1641 9.55528 7.05748 9.50103C6.95087 9.44678 6.86432 9.35996 6.81042 9.25317C6.75652 9.14638 6.73806 9.02518 6.75773 8.90719L7.32023 5.53219C7.34219 5.40092 7.40999 5.2817 7.51156 5.1957C7.61313 5.1097 7.74191 5.06251 7.875 5.0625H10.6875C10.8367 5.0625 10.9798 5.12176 11.0852 5.22725C11.1907 5.33274 11.25 5.47582 11.25 5.625C11.25 5.77418 11.1907 5.91726 11.0852 6.02275C10.9798 6.12824 10.8367 6.1875 10.6875 6.1875H8.35172L8.05711 7.95516C8.27355 7.9015 8.49576 7.87458 8.71875 7.875Z" fill="var(--fill-0, #ECD3C2)"/>
</g>
</svg>
