<svg width="2589" height="845" viewBox="0 0 2589 845" fill="none" xmlns="http://www.w3.org/2000/svg">
<path d="M67.3664 22.6727C45.4997 35.3394 26.9664 46.4061 26.2997 47.0727C25.3664 48.0061 121.1 104.139 302.966 209.606C455.9 298.273 580.966 371.073 580.966 371.473C581.1 371.873 495.766 421.339 391.366 481.606L201.766 591.073L202.166 628.939C202.433 649.739 202.7 666.939 202.966 667.206C203.5 667.606 730.433 363.739 732.699 361.606C734.033 360.406 661.9 318.139 423.5 180.273C252.566 81.3394 111.5 0.139404 109.9 0.00607085C108.166 -0.260596 92.033 8.27273 67.3664 22.6727Z" fill="black"/>
<path d="M0.0321912 424.806L0.432195 786.406L41.7655 810.272C64.5655 823.339 83.4988 834.139 84.1655 834.139C84.6988 834.139 85.2322 734.672 85.2322 613.072C85.3655 491.606 85.8988 346.806 86.2988 291.339L87.0988 190.539L273.765 298.406C376.432 357.739 462.032 407.072 463.899 408.139C467.232 409.872 468.565 409.206 499.232 390.672C516.699 380.139 531.232 370.939 531.365 370.406C531.632 369.606 5.09886 65.0726 1.09886 63.7392C0.165529 63.3392 -0.101142 190.806 0.0321912 424.806ZM1583.1 97.3392C1575.63 100.673 1573.76 104.006 1573.76 114.806C1573.76 123.339 1574.16 125.073 1576.96 128.006C1583.23 134.673 1596.56 135.873 1604.56 130.539C1611.5 126.006 1613.9 113.606 1609.36 104.806C1605.36 96.5392 1592.83 93.0725 1583.1 97.3392ZM1360.43 123.739C1360.03 124.673 1357.5 132.406 1354.7 140.806L1349.63 156.139L1337.37 162.806L1325.23 169.473L1325.1 177.073V184.673L1336.17 185.073L1347.1 185.473L1347.77 238.806C1348.3 271.606 1349.1 293.739 1350.03 296.139C1357.63 317.739 1371.63 326.272 1398.97 326.006C1406.97 326.006 1415.9 325.072 1421.1 323.739L1429.76 321.472L1430.17 308.406L1430.56 295.206L1424.83 296.406C1421.63 296.939 1413.9 297.472 1407.5 297.472C1394.97 297.472 1391.63 296.006 1385.9 288.272C1383.23 284.806 1383.1 282.672 1382.7 234.672L1382.3 184.806H1429.1V158.139H1382.43V122.139H1371.77C1364.43 122.139 1360.83 122.673 1360.43 123.739ZM901.765 157.473C884.699 160.139 862.432 167.606 862.432 170.673C862.432 173.606 872.165 194.139 873.632 194.139C874.432 194.139 879.365 192.406 884.432 190.273C897.499 185.073 906.832 183.073 918.432 182.939C939.499 182.939 947.632 190.539 949.765 212.273C950.699 221.473 950.699 221.739 947.632 222.539C945.899 223.073 938.165 223.473 930.432 223.473C895.232 223.473 870.299 230.273 857.365 243.073C848.965 251.473 846.032 258.939 845.365 273.739C844.299 297.339 852.699 313.339 870.699 321.472C877.899 324.806 881.232 325.472 893.232 325.872C917.099 326.806 930.565 322.272 944.032 308.806C948.432 304.272 952.299 300.806 952.432 301.072C952.699 301.339 954.299 306.272 956.032 312.139L959.232 322.806L972.165 323.206L985.099 323.606V267.206C985.099 208.672 984.299 198.006 979.765 185.606C970.965 162.273 940.565 151.339 901.765 157.473ZM948.832 259.073C948.299 275.206 946.165 280.806 938.165 288.272C929.365 296.672 923.232 298.806 908.165 298.806C893.499 298.806 890.565 297.606 884.565 289.739C881.365 285.472 880.165 273.606 882.299 267.073C887.499 251.606 902.032 246.006 940.299 245.073L949.365 244.806L948.832 259.073ZM1238.83 157.339C1212.17 162.539 1197.37 176.273 1196.03 197.606C1194.43 222.406 1206.17 235.606 1243.5 250.806C1261.5 258.006 1268.3 261.339 1274.17 265.739C1286.03 274.673 1284.7 289.072 1271.1 296.539C1267.9 298.406 1263.5 298.806 1249.77 298.806C1230.97 298.672 1221.5 296.939 1204.83 290.139L1195.77 286.406V316.806L1200.83 318.939C1217.9 326.272 1256.43 328.539 1276.3 323.472C1289.63 320.139 1298.7 315.072 1305.77 307.206C1313.37 298.672 1316.43 289.739 1316.3 276.139C1316.17 252.139 1305.5 241.206 1267.5 226.006C1238.57 214.539 1230.43 208.539 1230.43 198.406C1230.43 192.273 1233.77 187.873 1240.17 185.606C1253.5 180.939 1268.57 181.873 1289.9 188.939C1296.83 191.339 1302.7 192.939 1302.97 192.673C1304.03 191.473 1313.1 169.473 1313.1 168.139C1313.1 166.406 1300.7 161.873 1287.77 158.806C1275.23 155.873 1250.57 155.073 1238.83 157.339ZM1524.03 157.473C1511.23 161.073 1498.7 170.406 1490.83 182.273C1488.97 185.073 1486.96 187.473 1486.43 187.473C1485.9 187.473 1484.43 180.806 1483.1 172.806L1480.7 158.006L1467.23 158.406L1453.76 158.806L1453.36 241.073L1453.1 323.472H1488.97L1489.36 272.406L1489.76 221.473L1493.5 213.873C1498.3 204.006 1509.5 193.873 1518.7 190.673C1523.76 188.939 1529.5 188.273 1538.56 188.406L1551.23 188.673L1552.96 173.206C1553.76 164.673 1554.16 157.473 1553.9 157.206C1552.16 155.339 1530.56 155.606 1524.03 157.473ZM1696.43 156.806C1685.76 158.539 1666.3 164.139 1659.76 167.473L1654.43 170.139L1656.3 174.539C1657.36 176.806 1659.76 182.406 1661.76 186.939L1665.36 195.073L1674.43 191.339C1695.23 182.539 1717.9 180.273 1728.7 185.873C1738.03 190.806 1742.43 199.473 1742.43 213.473C1742.43 223.606 1742.7 223.473 1722.43 223.473C1676.43 223.473 1648.16 235.606 1640.16 258.539C1637.1 267.739 1637.1 286.939 1640.43 296.139C1648.03 317.872 1664.96 327.072 1694.7 325.872C1715.23 324.939 1722.3 322.139 1735.23 309.872C1746.43 299.206 1745.23 298.806 1749.76 315.072L1752.16 323.472H1777.23L1776.83 259.073C1776.43 194.939 1776.43 194.806 1773.23 186.939C1765.23 167.073 1747.63 157.206 1718.43 156.139C1710.7 155.873 1700.83 156.139 1696.43 156.806ZM1742.16 258.672C1741.63 270.939 1741.1 273.206 1737.5 279.606C1730.16 292.672 1717.36 299.472 1699.9 299.472C1689.36 299.472 1681.1 295.872 1677.1 289.606C1673.76 284.139 1673.36 269.339 1676.3 263.606C1682.83 250.939 1699.1 245.739 1733.63 244.939L1742.83 244.806L1742.16 258.672ZM1885.23 157.473C1872.7 160.273 1863.23 165.473 1855.1 173.739L1848.03 181.073L1845.5 169.873L1842.96 158.806L1829.36 158.406L1815.76 158.006V323.472H1850.16L1850.7 271.739C1851.23 222.539 1851.36 219.739 1854.3 211.073C1859.9 193.739 1870.43 186.006 1889.23 185.073C1906.56 184.139 1915.1 188.139 1921.5 200.006C1924.43 205.339 1924.43 206.539 1924.83 264.406L1925.23 323.472H1961.23L1960.7 261.739C1960.3 211.473 1959.9 198.939 1958.16 193.473C1952.56 175.073 1943.5 165.206 1926.56 159.473C1915.5 155.873 1896.56 154.806 1885.23 157.473ZM1021.1 215.739C1021.1 249.072 1021.77 277.072 1022.57 282.139C1025.1 298.672 1034.7 313.472 1046.7 319.606C1055.1 323.872 1066.43 326.139 1079.77 326.139C1101.23 326.139 1116.3 320.539 1127.1 308.539C1130.3 305.072 1133.1 302.139 1133.5 302.139C1133.9 302.139 1135.37 306.939 1136.7 312.806L1139.1 323.472H1166.43V158.139H1131.77V203.339C1131.77 228.272 1131.1 253.339 1130.3 259.073C1126.7 285.472 1113.5 298.139 1089.9 298.139C1074.83 298.139 1066.43 293.739 1060.7 282.939C1057.9 277.606 1057.77 276.139 1057.1 218.139L1056.43 158.806L1038.83 158.406L1021.1 158.006V215.739ZM1574.43 240.806V323.472H1609.1V158.139H1574.43V240.806Z" fill="black"/>
<path d="M109.1 538.139C109.1 706.806 109.5 844.806 110.166 844.806C110.7 844.806 251.5 763.872 423.1 664.939L735.099 485.073L735.499 436.273C735.633 406.806 735.366 387.473 734.566 387.473C733.899 387.473 608.033 459.473 454.833 547.473L176.433 707.339L175.766 487.206L175.1 267.206L142.566 249.339C124.7 239.473 109.9 231.473 109.633 231.473C109.366 231.473 109.1 369.473 109.1 538.139ZM2059.77 430.139C2050.3 432.139 2040.3 437.873 2034.57 444.406C2026.43 453.473 2023.5 462.539 2022.57 481.339L2021.77 497.073L2008.17 502.539L1994.43 507.873V524.806H2022.43V662.139H2057.1V524.806H2097.1V498.139H2056.83L2057.37 485.739C2058.3 466.939 2062.83 459.873 2076.03 457.473C2080.3 456.673 2094.3 458.139 2101.9 460.273C2104.57 460.939 2105.23 459.873 2109.1 448.139C2111.5 441.073 2113.1 435.073 2112.97 434.806C2108.57 430.673 2072.43 427.473 2059.77 430.139ZM2169.77 430.673C2155.37 434.406 2147.37 439.739 2141.77 449.339C2136.17 458.939 2134.3 466.273 2133.37 482.006L2132.43 497.073L2118.7 502.539L2104.97 508.006L2105.37 516.006L2105.77 524.139L2119.5 524.539L2133.1 524.939V662.139H2167.77V524.939L2188.17 524.539L2208.43 524.139L2208.83 511.073L2209.23 498.139H2167.37L2168.03 486.273C2169.5 461.873 2178.43 454.406 2201.37 458.139C2217.23 460.806 2215.63 461.739 2220.43 447.206L2224.83 434.406L2215.9 432.139C2204.43 429.073 2178.7 428.273 2169.77 430.673ZM2247.1 435.073C2236.17 437.873 2230.97 452.006 2236.83 463.473C2242.83 475.606 2263.5 476.006 2271.23 464.139C2274.43 459.206 2274.3 447.073 2270.83 442.406C2266.03 435.739 2256.43 432.806 2247.1 435.073ZM1219.1 462.406C1218.7 463.339 1215.9 471.339 1212.7 480.006L1207.1 495.873L1195.5 502.006L1183.77 508.139V524.806H1204.83L1205.37 575.739C1205.9 624.406 1206.17 627.206 1208.97 636.006C1216.17 658.006 1236.57 668.139 1266.7 664.806C1272.83 664.139 1280.3 662.673 1283.23 661.739L1288.43 659.872L1288.83 646.806L1289.23 633.873L1285.5 634.673C1283.5 635.206 1276.03 635.872 1269.1 636.272C1253.63 637.206 1248.7 635.206 1244.17 626.139C1241.1 620.406 1241.1 619.339 1241.1 572.539V524.806H1287.77V498.139H1241.1V460.806H1230.43C1223.1 460.806 1219.5 461.339 1219.1 462.406ZM1671.5 478.139L1665.77 495.606L1653.77 502.006L1641.77 508.406L1641.37 516.539L1640.97 524.806H1663.77V573.606C1663.77 612.806 1664.17 624.006 1665.9 631.339C1669.63 647.873 1679.23 658.539 1694.3 663.073C1704.3 666.006 1725.37 665.739 1737.77 662.539L1747.1 660.139L1747.5 646.673L1747.9 633.206L1740.83 634.939C1736.97 636.006 1729.23 636.806 1723.63 636.806C1712.03 636.806 1706.57 634.139 1701.9 626.139C1699.23 621.739 1699.1 619.073 1698.7 573.206L1698.3 524.806L1722.03 524.539L1745.77 524.139L1746.17 511.206L1746.57 498.139L1722.83 497.873L1699.1 497.473L1698.7 479.073L1698.3 460.806H1677.23L1671.5 478.139ZM927.899 495.606C916.566 497.473 904.966 503.873 897.366 512.139C893.633 516.139 890.299 519.473 890.033 519.473C889.633 519.473 888.299 514.673 886.966 508.806L884.699 498.139H855.766V735.472H891.766V702.406C891.766 684.273 891.099 663.739 890.433 656.806C889.766 649.873 889.499 643.872 889.899 643.606C890.166 643.206 892.966 645.339 896.166 648.406C906.833 658.539 915.366 662.673 930.433 664.806C957.633 668.673 982.699 656.139 994.433 632.806C1005.77 610.273 1008.97 572.939 1001.77 545.473C994.566 517.873 976.033 499.339 951.766 495.473C941.766 494.006 937.899 494.006 927.899 495.606ZM945.766 526.006C957.233 531.206 964.033 540.673 967.766 556.806C970.299 567.339 969.899 594.139 967.099 604.806C963.099 620.273 953.499 632.406 942.833 635.339C930.166 638.939 913.633 635.739 905.233 628.006C894.833 618.673 891.233 603.873 892.033 573.339C892.433 552.806 892.566 551.873 896.566 543.339C903.233 529.206 912.966 523.739 931.099 523.606C937.366 523.606 942.166 524.273 945.766 526.006ZM1085.77 495.473C1075.5 496.806 1057.23 501.739 1047.37 506.006L1041.1 508.673L1044.57 516.406C1046.57 520.673 1048.97 526.406 1050.17 529.206C1051.23 532.006 1052.83 534.006 1053.63 533.606C1072.83 525.073 1084.03 522.139 1098.43 522.139C1112.7 522.139 1119.37 524.939 1124.57 532.806C1127.77 537.606 1128.43 540.139 1128.83 550.273L1129.37 562.139H1114.3C1075.37 562.139 1046.97 569.873 1035.23 583.739C1023.23 597.739 1020.83 621.073 1029.5 640.006C1038.3 659.206 1059.5 668.273 1087.63 664.806C1103.23 662.806 1113.77 657.873 1123.9 647.473L1131.77 639.339L1133.23 643.073C1133.9 645.073 1135.5 650.139 1136.7 654.406L1138.83 662.139H1163.77V600.406C1163.77 553.339 1163.37 537.206 1161.9 532.139C1156.97 513.606 1145.63 502.673 1125.9 497.606C1116.3 495.073 1097.23 494.139 1085.77 495.473ZM1129.1 594.539C1129.1 608.539 1126.57 617.339 1120.3 624.539C1112.7 633.473 1104.17 637.206 1089.77 637.873C1079.23 638.273 1077.1 638.006 1071.9 635.206C1064.3 631.206 1061.1 625.339 1061.1 615.073C1061.1 592.673 1076.03 585.073 1122.83 583.606L1129.1 583.473V594.539ZM1361.23 496.139C1333.9 501.206 1313.77 520.673 1305.77 549.473C1302.43 561.339 1301.63 592.139 1304.3 604.806C1307.5 620.406 1315.37 634.939 1325.77 644.673C1341.9 659.606 1357.9 665.073 1385.77 665.073C1404.43 665.073 1419.1 662.673 1431.77 657.739L1439.1 654.806L1439.5 640.673L1439.9 626.406L1426.83 630.939C1404.57 638.406 1381.23 640.006 1366.3 634.806C1350.83 629.473 1338.57 610.673 1338.43 592.406V587.473H1447.77V572.406C1447.77 564.273 1446.83 553.339 1445.77 548.273C1441.77 529.606 1431.5 514.006 1417.37 504.939C1403.63 496.273 1379.9 492.539 1361.23 496.139ZM1392.97 524.273C1404.03 528.673 1413.1 543.606 1413.1 557.073V562.139H1338.17L1339.1 557.739C1342.97 538.273 1352.03 526.673 1366.3 522.539C1373.63 520.539 1385.5 521.206 1392.97 524.273ZM1551.1 495.606C1536.17 498.139 1524.17 504.139 1516.03 513.473C1513.1 516.806 1510.43 519.473 1510.17 519.473C1509.77 519.473 1508.43 514.673 1507.23 508.806L1504.83 498.139H1477.1V662.139H1511.5L1512.17 611.739C1512.57 573.606 1513.23 559.739 1514.7 554.139C1520.43 532.539 1532.43 523.473 1554.97 523.473C1570.43 523.606 1579.9 529.473 1584.7 542.139C1586.7 547.339 1586.97 555.473 1587.5 605.073L1588.03 662.139H1622.43V603.739C1622.43 541.473 1621.77 534.673 1615.63 521.473C1606.3 501.606 1579.37 490.806 1551.1 495.606ZM1892.03 495.606C1862.97 500.006 1842.97 517.073 1833.5 545.473C1830.17 555.206 1829.9 558.006 1829.9 578.139C1829.77 595.473 1830.3 602.006 1832.17 608.673C1840.17 637.073 1858.83 656.139 1885.23 662.939C1896.43 665.872 1917.63 665.872 1929.1 662.939C1946.97 658.406 1962.3 647.606 1971.77 632.806C1983.9 613.873 1988.43 578.006 1981.77 552.006C1976.83 532.939 1964.83 515.339 1950.43 506.139C1936.3 497.073 1911.63 492.539 1892.03 495.606ZM1925.77 527.073C1942.17 535.739 1950.57 557.739 1948.57 586.806C1946.83 611.739 1940.03 625.473 1925.77 633.206C1921.37 635.606 1918.3 636.139 1907.1 636.139C1895.9 636.139 1892.83 635.606 1888.3 633.206C1872.03 624.539 1865.23 608.673 1865.1 579.739C1865.1 550.273 1873.9 531.739 1891.23 525.339C1898.97 522.539 1918.83 523.473 1925.77 527.073ZM2365.77 495.473C2347.63 498.006 2332.7 505.206 2322.17 516.539C2314.43 524.806 2310.97 530.673 2307.1 542.006C2302.43 555.873 2300.57 570.939 2301.5 588.006C2302.97 614.139 2308.97 630.673 2321.9 644.806C2335.1 658.939 2352.57 665.206 2379.1 665.206C2395.77 665.206 2405.63 663.339 2417.5 658.272L2423.77 655.606V624.939L2416.57 628.139C2404.83 633.339 2393.23 635.739 2380.3 635.873C2369.63 636.006 2367.23 635.472 2360.7 632.272C2343.5 623.872 2335.77 604.539 2337.5 574.139C2338.43 557.739 2340.83 548.806 2346.83 540.006C2357.9 523.473 2379.1 519.739 2407.37 529.206L2416.7 532.406L2421.63 518.939C2424.3 511.473 2426.43 505.073 2426.43 504.673C2426.43 503.473 2416.17 499.739 2406.43 497.606C2395.23 495.073 2375.9 494.006 2365.77 495.473ZM2504.03 495.473C2464.43 501.606 2441.77 533.073 2442.03 581.473C2442.17 600.539 2444.57 612.139 2451.37 625.873C2460.3 644.139 2477.5 657.339 2499.77 663.073C2518.03 667.739 2553.1 665.072 2571.77 657.606L2579.1 654.673L2579.5 640.272C2579.9 626.806 2579.63 625.872 2577.5 626.939C2552.43 638.006 2520.17 641.073 2503.63 634.006C2494.03 629.873 2484.57 618.939 2481.23 608.273C2479.77 603.739 2478.43 597.339 2478.3 594.006L2477.77 588.139L2532.97 587.739L2588.17 587.473L2587.37 569.073C2586.83 554.539 2586.03 548.673 2583.37 540.539C2576.17 518.139 2562.17 504.273 2540.03 497.739C2531.37 495.073 2513.37 494.006 2504.03 495.473ZM2534.03 524.939C2544.17 529.873 2550.97 540.673 2552.57 554.539L2553.5 562.139H2478.17L2478.97 557.073C2481.5 542.806 2489.37 530.139 2498.57 525.473C2508.57 520.273 2523.9 520.006 2534.03 524.939ZM2237.1 580.139V662.139H2271.77V498.139H2237.1V580.139Z" fill="black"/>
</svg>

