<svg fill="none" height="48" width="48" xmlns="http://www.w3.org/2000/svg" xmlns:xlink="http://www.w3.org/1999/xlink"><linearGradient id="a" gradientUnits="userSpaceOnUse" x2="4800" y1="4800"><stop offset="0" stop-color="#1b660f"/><stop offset="1" stop-color="#6cae3e"/></linearGradient><clipPath id="b"><path d="m0 0h48v48h-48z"/></clipPath><g clip-path="url(#b)"><path d="m48 8a8 8 0 0 0 -8-8h-32a8 8 0 0 0 -8 8v32a8 8 0 0 0 8 8h32a8 8 0 0 0 8-8z" fill="url(#a)"/><path clip-rule="evenodd" d="m37.429 25.736.23-1.623c2.125 1.273 2.153 1.798 2.152 1.813-.004.003-.366.305-2.382-.19zm-1.166-.324c-3.672-1.112-8.786-3.458-10.855-4.436l.002-.024c0-.795-.646-1.442-1.442-1.442-.794 0-1.441.647-1.441 1.442s.646 1.442 1.44 1.442c.35 0 .667-.13.917-.338 2.435 1.153 7.51 3.465 11.208 4.557l-1.462 10.323a.573.573 0 0 0 -.006.085c0 .909-4.024 2.579-10.6 2.579-6.644 0-10.711-1.67-10.711-2.579a.614.614 0 0 0 -.005-.082l-3.058-22.324c2.646 1.821 8.335 2.785 13.777 2.785 5.434 0 11.114-.96 13.765-2.776zm-26.336-13.125c.044-.79 4.58-3.887 14.1-3.887 9.519 0 14.056 3.096 14.1 3.887v.269c-.522 1.77-6.402 3.644-14.1 3.644-7.71 0-13.594-1.88-14.1-3.652zm29.4.013c0-2.08-5.96-5.1-15.3-5.1s-15.3 3.02-15.3 5.1l.057.452 3.329 24.315c.08 2.719 7.33 3.733 11.91 3.733 5.684 0 11.722-1.307 11.8-3.732l1.437-10.138c.8.192 1.458.29 1.987.29.71 0 1.19-.174 1.48-.52a1.17 1.17 0 0 0 .262-.996c-.155-.83-1.14-1.726-3.148-2.871l1.425-10.057z" fill="#fff" fill-rule="evenodd"/></g></svg>