<svg fill="none" height="48" width="48" xmlns="http://www.w3.org/2000/svg" xmlns:xlink="http://www.w3.org/1999/xlink"><linearGradient id="a" gradientUnits="userSpaceOnUse" x2="4800" y1="4800"><stop offset="0" stop-color="#2e27ad"/><stop offset="1" stop-color="#527fff"/></linearGradient><clipPath id="b"><path d="m0 0h48v48h-48z"/></clipPath><g clip-path="url(#b)"><path d="m48 8a8 8 0 0 0 -8-8h-32a8 8 0 0 0 -8 8v32a8 8 0 0 0 8 8h32a8 8 0 0 0 8-8z" fill="url(#a)"/><path clip-rule="evenodd" d="m33.652 32.91c-2.003 1.62-6.205 2.475-10.226 2.475-4.02 0-8.224-.856-10.226-2.475v3.26c0 1.627 4.2 3.44 10.226 3.44 6.022 0 10.219-1.81 10.226-3.436zm0-6.196 1.2-.007v.006c0 .725-.363 1.402-1.07 2.021.857.754 1.07 1.494 1.07 2.02v5.417c0 3.006-5.887 4.63-11.426 4.63-5.525 0-11.396-1.617-11.424-4.61l-.002-.007v-5.43l.001-.005c.002-.526.216-1.263 1.071-2.015-.85-.751-1.066-1.484-1.071-2.006l-.001-.008v-5.43l.001-.005c.002-.527.216-1.263 1.072-2.015-.851-.751-1.067-1.484-1.072-2.006l-.001-.007v-5.43l.001-.005c.01-3.002 5.891-4.622 11.425-4.622 3.127 0 6.13.497 8.24 1.363l-.458 1.1c-1.97-.809-4.806-1.273-7.782-1.273-6.026 0-10.225 1.813-10.225 3.44 0 1.628 4.199 3.44 10.225 3.44.163.002.322 0 .483-.006l.05 1.19c-.177.006-.355.006-.533.006-4.02 0-8.224-.856-10.226-2.475v3.273c.007.624.647 1.17 1.183 1.516 1.614 1.029 4.506 1.731 7.731 1.877l-.054 1.19c-3.267-.149-6.128-.827-7.97-1.866-.453.34-.89.798-.89 1.318 0 1.627 4.2 3.44 10.226 3.44.591 0 1.178-.02 1.745-.059l.084 1.187c-.594.041-1.21.062-1.829.062-4.02 0-8.224-.856-10.226-2.475v3.259c.006.638.647 1.182 1.183 1.53 1.846 1.177 5.311 1.91 9.043 1.91h.264v1.19h-.264c-3.791 0-7.237-.704-9.344-1.893-.451.338-.881.795-.881 1.31 0 1.628 4.199 3.441 10.225 3.441 6.022 0 10.219-1.81 10.226-3.436v-.006c-.002-.517-.434-.974-.886-1.313a8.452 8.452 0 0 1 -.964.473l-.46-1.1c.436-.178.814-.372 1.125-.575.54-.353 1.185-.905 1.185-1.524zm5.14-8.704h-3.363a.6.6 0 0 1 -.496-.26.59.59 0 0 1 -.062-.554l2.046-5.113h-7.747l-3.6 7.141h3.83a.593.593 0 0 1 .572.776l-3.418 10.654zm1.841-.183-15 15.497a.603.603 0 0 1 -.739.1.593.593 0 0 1 -.265-.693l3.951-12.317h-3.98a.601.601 0 0 1 -.51-.282.59.59 0 0 1 -.026-.579l4.2-8.331a.6.6 0 0 1 .537-.33h9c.198 0 .385.099.496.261a.59.59 0 0 1 .062.554l-2.046 5.113h3.887c.24 0 .458.143.552.362a.592.592 0 0 1 -.119.645zm-26.56 18.578c.85.479 1.92.882 3.181 1.196l.293-1.155c-1.14-.283-2.135-.656-2.881-1.076zm3.181-8.326.293-1.154c-1.14-.284-2.135-.657-2.881-1.077l-.593 1.035c.85.48 1.92.882 3.181 1.196zm-3.181-10.718.593-1.034c.744.42 1.741.792 2.881 1.077l-.293 1.154c-1.262-.315-2.332-.718-3.181-1.197z" fill="#fff" fill-rule="evenodd"/></g></svg>