<svg fill="none" height="48" width="48" xmlns="http://www.w3.org/2000/svg" xmlns:xlink="http://www.w3.org/1999/xlink"><linearGradient id="a" gradientUnits="userSpaceOnUse" x1="32.85" x2="23.779" y1="6.344" y2="48.932"><stop offset="0" stop-color="#114a8b"/><stop offset="1" stop-color="#0669bc"/></linearGradient><linearGradient id="b" gradientUnits="userSpaceOnUse" x1="28.928" x2="25.471" y1="24.959" y2="26.291"><stop offset="0" stop-opacity=".3"/><stop offset=".071" stop-opacity=".2"/><stop offset=".321" stop-opacity=".1"/><stop offset=".623" stop-opacity=".05"/><stop offset="1" stop-opacity="0"/></linearGradient><linearGradient id="c" gradientUnits="userSpaceOnUse" x1="23.918" x2="38.759" y1="5.179" y2="44.719"><stop offset="0" stop-color="#3ccbf4"/><stop offset="1" stop-color="#2892df"/></linearGradient><path d="m16.669 3.272h13.019l-13.515 40.043a2.076 2.076 0 0 1 -1.966 1.413h-10.132a2.073 2.073 0 0 1 -1.964-2.736l12.591-37.308a2.076 2.076 0 0 1 1.967-1.412z" fill="url(#a)"/><path d="m35.587 30.13h-20.645a.956.956 0 0 0 -.652 1.655l13.266 12.382c.386.36.895.56 1.423.56h11.69l-5.081-14.596z" fill="#0078d4"/><path d="m16.669 3.272a2.059 2.059 0 0 0 -1.972 1.44l-12.57 37.246a2.07 2.07 0 0 0 1.954 2.768h10.393a2.223 2.223 0 0 0 1.705-1.45l2.508-7.388 8.954 8.352c.376.31.846.483 1.334.486h11.645l-5.108-14.596-14.89.003 9.113-26.862h-13.066z" fill="url(#b)"/><path d="m33.297 4.682a2.072 2.072 0 0 0 -1.963-1.41h-14.51a2.073 2.073 0 0 1 1.964 1.41l12.592 37.31a2.073 2.073 0 0 1 -1.964 2.736h14.51a2.073 2.073 0 0 0 1.963-2.736z" fill="url(#c)"/></svg>