<svg width="265" height="265" viewBox="0 0 265 265" fill="none" xmlns="http://www.w3.org/2000/svg">
<path d="M5.95387 182.923L80.9781 257.947C84.2671 261.236 89.5968 261.236 92.8858 257.947L125.555 225.278C128.495 222.338 129.884 218.183 129.307 214.061L120.534 152.059C119.89 147.548 116.346 144.004 111.842 143.367L49.8394 134.594C45.7247 134.01 41.5697 135.399 38.623 138.346L5.95387 171.015C2.66481 174.304 2.66481 179.634 5.95387 182.923Z" fill="url(#paint0_linear_1293_2821)"/>
<path d="M183.126 258.15L258.15 183.125C261.439 179.836 261.439 174.507 258.15 171.218L225.481 138.549C222.541 135.609 218.386 134.219 214.264 134.796L152.262 143.569C147.752 144.214 144.207 147.758 143.57 152.262L134.797 214.264C134.213 218.379 135.602 222.534 138.549 225.481L171.218 258.15C174.507 261.439 179.837 261.439 183.126 258.15Z" fill="url(#paint1_linear_1293_2821)"/>
<path d="M258.023 80.9866L182.998 5.96235C179.709 2.67328 174.38 2.67326 171.091 5.96233L138.422 38.6314C135.482 41.5715 134.092 45.7264 134.669 49.8478L143.442 111.85C144.087 116.361 147.631 119.905 152.135 120.543L214.137 129.316C218.252 129.9 222.407 128.51 225.354 125.563L258.023 92.8943C261.312 89.6052 261.312 84.2756 258.023 80.9866Z" fill="url(#paint2_linear_1293_2821)"/>
<path d="M81.1262 5.95387L6.102 80.9781C2.81293 84.2671 2.81291 89.5968 6.10197 92.8858L38.7711 125.555C41.7111 128.495 45.8661 129.884 49.9875 129.307L111.99 120.534C116.5 119.89 120.045 116.346 120.682 111.842L129.455 49.8394C130.039 45.7247 128.65 41.5697 125.703 38.623L93.0339 5.95387C89.7449 2.66481 84.4153 2.66481 81.1262 5.95387Z" fill="url(#paint3_linear_1293_2821)"/>
<defs>
<linearGradient id="paint0_linear_1293_2821" x1="117.638" y1="146.263" x2="43.466" y2="220.435" gradientUnits="userSpaceOnUse">
<stop stop-color="#F4D2AD"/>
<stop offset="1" stop-color="#1473D3"/>
</linearGradient>
<linearGradient id="paint1_linear_1293_2821" x1="146.466" y1="146.466" x2="220.638" y2="220.638" gradientUnits="userSpaceOnUse">
<stop stop-color="#F4D2AD"/>
<stop offset="1" stop-color="#1473D3"/>
</linearGradient>
<linearGradient id="paint2_linear_1293_2821" x1="146.339" y1="117.646" x2="220.511" y2="43.4744" gradientUnits="userSpaceOnUse">
<stop stop-color="#F4D2AD"/>
<stop offset="1" stop-color="#1473D3"/>
</linearGradient>
<linearGradient id="paint3_linear_1293_2821" x1="117.786" y1="117.638" x2="43.6141" y2="43.466" gradientUnits="userSpaceOnUse">
<stop stop-color="#F4D2AD"/>
<stop offset="1" stop-color="#1473D3"/>
</linearGradient>
</defs>
</svg>
