<?xml version="1.0" encoding="utf-8"?>
<!-- Generator: Adobe Illustrator 27.8.0, SVG Export Plug-In . SVG Version: 6.00 Build 0)  -->
<svg version="1.1" id="Budibase_Logo" xmlns="http://www.w3.org/2000/svg" xmlns:xlink="http://www.w3.org/1999/xlink" x="0px"
	 y="0px" viewBox="0 0 1200 265" style="enable-background:new 0 0 1200 265;" xml:space="preserve">
<g>
	<g>
		<path d="M456.1,140.1c-4.3-4.5-9.8-7.9-16.6-10.1c19.7-8.2,23.8-32.9,13.2-49.3c-9.3-13.2-25.3-16.5-42.4-16.7
			c-15.3,0-40.1,0-55.2,0v140c6,0,20.8,0,26.6,0c16.2-0.4,46.8,2,60.8-4.5C466.7,191.5,473.4,158,456.1,140.1z M408.1,86.8
			c6.7,0,12.1,1.2,16.3,3.6c10,5.7,8.2,26.7-4.5,29.1c-7.2,2.6-30.2,1.2-38.2,1.5V86.8H408.1z M431.7,176.7
			c-4.4,3-10.3,4.5-17.8,4.5h-32.2v-38.8h32.2c7.5,0,13.4,1.5,17.8,4.4C440.5,151.7,440.5,171.6,431.7,176.7z"/>
		<path d="M527.6,206.3c-25.3,0.7-46.1-17.7-45.2-43.8c0,0,0-61.4,0-61.4h25.2V161c-0.3,14,7,22.8,20,23c13-0.2,20.2-9,20-23
			c0,0,0-59.8,0-59.8h25v61.4C573.5,188.5,552.7,207,527.6,206.3z"/>
		<path d="M666.6,69.3v47c-10.4-19.2-38.4-22.6-55.9-10.6c-15.2,10.2-22.6,27.8-22.5,46.8c-0.1,18.8,7.4,36.7,22.5,46.8
			c17.4,12.1,45.4,8.6,55.9-10.5V204h25V63L666.6,69.3z M659.7,175.8c-9.2,10.9-29.2,10.9-38.4,0c-9.9-9.9-9.9-36.5,0-46.4
			c9.2-10.9,29.2-10.9,38.4,0C669.5,139.2,669.5,165.9,659.7,175.8z"/>
		<path d="M730.9,88.8c-21.9,0.5-21.8-30.8,0-30.4C752.4,58.3,752.5,89,730.9,88.8z M743.1,101.2V204h-25V101.2H743.1z"/>
		<path d="M867,124.9c-12.4-28.7-55.7-36.9-72.4-8.5V63l-25,6.3V204h25v-15.1c10.4,19.1,38.7,22.6,56,10.5
			C873.6,184.5,878.7,148.4,867,124.9z M840,175.8c-9.2,10.9-29.2,10.9-38.4,0c-9.9-9.9-9.9-36.5,0-46.4c9.2-10.9,29.2-10.9,38.4,0
			C849.9,139.2,849.9,165.9,840,175.8z"/>
		<path d="M973.4,116.4c-19.3-26.2-71.1-23.6-83.3,8.7l21.1,8.9c6.5-15.1,32.1-18.1,40.9-4c3.4,4.8,2.7,15.2,2.7,21.4
			c-19.4-18.4-69.8-9.6-68.8,22.9c-1.3,34.2,52.3,41.8,70.4,19.7v9.9h23.4v-64.6C979.8,130,977.6,122.4,973.4,116.4z M949.2,184.3
			c-7.5,5-23.8,4.9-31.3,0.1c-8.1-4.3-8.1-16.5,0-20.8c10.5-6,36.8-6,37.3,10.4C955.2,178.4,953.2,181.8,949.2,184.3z"/>
		<path d="M1043.7,206.3c-21.5,0.4-42.2-11.7-46.8-34l20.2-6.6c2.7,13.5,13.6,20.2,26.6,20.2c8.5-0.2,18.4-1.8,19.2-10.2
			c-0.7-8.8-9.5-9.2-18.6-12.2c-12.1-2.4-29.6-7.6-35.8-14.5c-11.8-10.9-10.5-32.6,3.2-41.9c22.6-16.8,70.8-8.8,74,24.8l-20.8,5.4
			c-2.1-12.8-11.4-18.1-23.4-18.2c-7.8,0.1-16.6,2-17.2,9.8c1,9.2,12.3,9.3,20,12c11.7,2.3,28,7,34.5,14.2c9.8,8.9,10.7,25.7,2.7,36
			C1072.9,202.3,1058.6,206.3,1043.7,206.3z"/>
		<path d="M1193.8,124.2c-11.5-25-45.5-32.3-68.1-18.7c-16.4,9.8-24.2,27.3-24.1,47.1c-0.1,19.7,8,37.5,24.6,47.1
			c24.1,14,60.8,6,71.8-21.8l-21.5-7.7c-6.5,14-24.8,18.5-37.7,11.2c-7.5-4.6-11-13.8-11.8-23.2h72.7
			C1200.7,146.3,1198.7,133.5,1193.8,124.2z M1151.6,119c12.7,0,20.9,9.2,22.9,21.8h-46.7C1130,127.9,1138,118.9,1151.6,119z"/>
	</g>
	<path d="M158.2,8.6v108c0,4.7,3.8,8.6,8.6,8.6h47c4.2,0,8.2-2,10.8-5.4l38.3-50.9c2.8-3.7,2.8-8.8,0-12.5L224.6,5.4
		C222,2,218,0,213.8,0h-47C162,0,158.2,3.8,158.2,8.6z"/>
	<path d="M158.2,148.4v108c0,4.7,3.8,8.6,8.6,8.6h47c4.2,0,8.2-2,10.8-5.4l38.3-50.9c2.8-3.7,2.8-8.8,0-12.5l-38.3-50.9
		c-2.5-3.4-6.5-5.4-10.8-5.4h-47C162,139.8,158.2,143.7,158.2,148.4z"/>
	<path d="M0,8.6v108c0,4.7,3.8,8.6,8.6,8.6h101c4.2,0,8.2-2,10.8-5.4l35.5-47.3c4.4-5.9,4.4-14,0-19.9L120.3,5.4
		C117.8,2,113.8,0,109.5,0H8.6C3.8,0,0,3.8,0,8.6z"/>
	<path d="M0,148.4v108c0,4.7,3.8,8.6,8.6,8.6h101c4.2,0,8.2-2,10.8-5.4l35.5-47.3c4.4-5.9,4.4-14,0-19.9l-35.5-47.3
		c-2.5-3.4-6.5-5.4-10.8-5.4H8.6C3.8,139.8,0,143.7,0,148.4z"/>
</g>
</svg>
