<svg fill="none" height="48" width="48" xmlns="http://www.w3.org/2000/svg" xmlns:xlink="http://www.w3.org/1999/xlink"><clipPath id="a"><path d="m0 0h48v48h-48z"/></clipPath><g clip-path="url(#a)"><path d="m39.024 29.232c0 1.968-1.056 2.976-3.024 2.976h-24c-1.968-.048-3.024-1.008-3.024-2.976s1.056-2.976 3.024-2.976h24c1.968.048 3.024 1.008 3.024 2.976zm-3.024 4.512h-24c-1.968.048-3.024 1.008-3.024 2.976s1.056 2.976 3.024 2.976h24c1.968-.048 3.024-1.008 3.024-2.976s-1.056-2.928-3.024-2.976zm7.488-16.512c-1.968.048-3.024 1.008-3.024 2.976v16.512c0 1.968 1.056 2.976 3.024 2.976 2.928-.096 4.512-3.024 4.512-8.976v-7.488c0-3.984-1.584-5.904-4.512-6zm-38.976 0c-2.928.096-4.512 2.016-4.512 6v7.488c0 5.952 1.584 8.88 4.512 8.976 1.968-.048 2.976-1.008 2.976-2.976v-16.464c0-2.016-1.056-2.976-2.976-3.024zm38.976-1.488c0-4.992-2.64-7.392-7.488-7.488h-24c-4.896.096-7.488 2.544-7.488 7.488 2.928.048 4.512 1.536 4.512 4.512s1.584 4.464 4.512 4.512h21.024c2.928-.048 4.512-1.536 4.512-4.512-.048-2.976 1.488-4.464 4.416-4.512z" fill="#e32829"/></g></svg>