<svg width="48" height="48" fill="none" xmlns="http://www.w3.org/2000/svg"><path fill-rule="evenodd" clip-rule="evenodd" d="M38.917 33.75l-3.928-2.59-3.277 5.473L27.9 35.52l-3.356 5.123.172 1.612 18.248-3.363-1.06-11.402-2.987 6.262zM21.9 28.836l2.928-.402c.474.213.803.294 1.371.438.885.23 1.909.451 3.425-.312.353-.175 1.088-.847 1.385-1.23l11.995-2.176 1.223 14.81-20.55 3.703-1.777-14.83zM44.181 23.5l-1.184.225L40.723.222 1.963 4.716l4.776 38.75 4.537-.659c-.362-.517-.926-1.143-1.89-1.944-1.335-1.11-.864-2.995-.075-4.186 1.043-2.012 6.416-4.569 6.112-7.784-.11-1.17-.295-2.69-1.38-3.734-.042.433.032.849.032.849s-.446-.569-.668-1.344c-.22-.297-.394-.392-.628-.79-.168.46-.145.993-.145.993s-.365-.861-.424-1.588c-.216.325-.27.942-.27.942s-.473-1.357-.365-2.089c-.216-.636-.857-1.9-.676-4.77 1.183.83 3.787.633 4.801-.862.337-.496.568-1.848-.168-4.512-.473-1.709-1.643-4.253-2.099-5.218l-.054.04c.24.777.736 2.407.927 3.198.576 2.396.73 3.231.46 4.337-.23.96-.782 1.589-2.18 2.291-1.398.705-3.253-1.01-3.37-1.105-1.358-1.082-2.41-2.847-2.526-3.705-.122-.939.541-1.502.875-2.27-.478.137-1.011.38-1.011.38s.636-.658 1.42-1.228c.326-.215.516-.352.859-.636-.496-.008-.899.006-.899.006s.827-.447 1.684-.772C8.991 7.278 8.391 7.3 8.391 7.3s1.845-.825 3.301-1.43c1.002-.411 1.98-.29 2.53.506.723 1.042 1.481 1.608 3.088 1.958.987-.437 1.286-.661 2.526-1 1.091-1.2 1.948-1.355 1.948-1.355s-.425.39-.539 1.002c.619-.487 1.297-.895 1.297-.895s-.263.324-.508.84l.057.084c.722-.433 1.57-.774 1.57-.774s-.242.307-.527.703c.545-.004 1.649.024 2.078.072 2.53.056 3.054-2.701 4.025-3.047 1.215-.434 1.759-.697 3.83 1.338 1.776 1.748 3.165 4.874 2.475 5.574-.578.581-1.718-.227-2.982-1.802A6.822 6.822 0 0 1 31.15 6c-.2-1.058-.976-1.67-.976-1.67s.45 1.004.45 1.889c0 .484.06 2.292.836 3.307-.077.148-.113.734-.197.846-.902-1.09-2.84-1.87-3.156-2.1 1.07.876 3.527 2.888 4.47 4.818.894 1.825.368 3.497.82 3.93.128.123 1.92 2.356 2.264 3.478.602 1.954.036 4.01-.75 5.283l-2.199.343c-.321-.09-.538-.134-.826-.301.16-.281.475-.983.478-1.128l-.124-.217c-.684.97-1.83 1.91-2.782 2.45-1.245.707-2.681.597-3.616.308-2.653-.817-5.162-2.61-5.767-3.082 0 0-.018.376.096.461.668.755 2.2 2.119 3.682 3.071l-3.158.348 1.493 11.623c-.661.095-.765.142-1.489.244-.639-2.256-1.86-3.729-3.195-4.587-1.178-.757-2.802-.927-4.356-.619l-.1.116c1.081-.112 2.357.044 3.667.874 1.287.813 2.323 2.915 2.705 4.18.49 1.616.827 3.346-.489 5.179-.935 1.303-3.667 2.023-5.874.465.59.948 1.386 1.723 2.459 1.869 1.592.217 3.104-.06 4.145-1.128.888-.914 1.36-2.824 1.235-4.835l1.406-.204.508 3.61 23.27-2.802-1.899-18.521zm-14.158-9.803c-.064.148-.167.245-.014.728l.01.027.024.063.064.144c.276.565.579 1.097 1.086 1.37.131-.023.268-.038.408-.044.477-.021.777.054.967.157.017-.096.021-.234.01-.439-.037-.715.142-1.931-1.233-2.571-.518-.24-1.246-.167-1.489.134a.653.653 0 0 1 .115.025c.367.127.119.254.052.406zm3.854 6.673c-.18-.1-1.022-.06-1.615.01-1.128.134-2.346.524-2.613.733-.485.375-.265 1.029.094 1.297 1.005.751 1.887 1.255 2.816 1.132.571-.075 1.075-.98 1.431-1.8.245-.564.245-1.174-.113-1.372zm-9.989-5.788c.318-.303-1.584-.7-3.061.308-1.089.743-1.124 2.335-.081 3.238.104.09.19.153.27.205a9.412 9.412 0 0 1 2.747-.81c.22-.246.477-.68.413-1.466-.087-1.067-.894-.898-.288-1.475z" fill="#632CA6"/></svg>