<svg width="48" height="48" fill="none" xmlns="http://www.w3.org/2000/svg"><path d="M5.57 29.4h24.49c2.94 0 5.4-2.4 5.4-5.4 0-3-2.4-5.4-5.4-5.4H5.57A19.206 19.206 0 0 0 4.8 24c0 1.875.269 3.687.77 5.4z" fill="#231F20"/><path d="M5.57 29.4H21.6c.42-1.62.66-3.42.66-5.4 0-1.98-.24-3.78-.66-5.4H5.57A19.206 19.206 0 0 0 4.8 24c0 1.875.269 3.687.77 5.4z" fill="#231F20"/><path d="M6.73 15.6h25.49c2.81 0 5.322-1.287 7.005-3.3C35.715 7.74 30.2 4.8 24 4.8c-7.591 0-14.154 4.406-17.27 10.8z" fill="#F0BF1A"/><path d="M39.291 35.613C35.784 40.223 30.24 43.2 24 43.2c-7.591 0-14.154-4.406-17.27-10.8h25.61a9.099 9.099 0 0 1 6.951 3.213z" fill="#3EBEB0"/></svg>