<svg width="48" height="48" fill="none" xmlns="http://www.w3.org/2000/svg"><path d="M16.902 46.62a18.89 18.89 0 0 0 6.438 1.368 18.831 18.831 0 0 0 8.624-1.748 26.839 26.839 0 0 1-8.407-5.308 14.417 14.417 0 0 1-6.655 5.688z" fill="#FF9100"/><path d="M23.557 40.932a27.026 27.026 0 0 1-8.574-21.579 14.278 14.278 0 0 0-7.49.079 19.102 19.102 0 0 0-2.481 8.793 19.118 19.118 0 0 0 11.89 18.395 14.404 14.404 0 0 0 6.655-5.688z" fill="#FFC400"/><path d="M23.557 40.932a14.392 14.392 0 0 0 2.159-7.119c.239-6.885-4.364-12.807-10.733-14.46a27.026 27.026 0 0 0 8.574 21.579z" fill="#FF9100"/><path d="M25.004 0a27.05 27.05 0 0 0-8.226 11.217 27.072 27.072 0 0 0-1.798 8.138c6.37 1.652 10.972 7.575 10.733 14.46a14.425 14.425 0 0 1-2.159 7.119 26.796 26.796 0 0 0 8.407 5.308A19.104 19.104 0 0 0 42.99 29.558c.168-4.83-1.677-9.134-4.284-12.767C35.952 12.95 25.004 0 25.004 0z" fill="#DD2C00"/></svg>