<svg width="48" height="48" fill="none" xmlns="http://www.w3.org/2000/svg"><g clip-path="url(#clip0_6722_17336)"><path d="M3.888 2.07L30.448.11c3.263-.28 4.1-.092 6.152 1.4l8.478 5.972c1.399 1.027 1.864 1.307 1.864 2.425v32.757c0 2.053-.745 3.267-3.355 3.453l-30.843 1.868c-1.958.092-2.89-.188-3.917-1.495l-6.243-8.118C1.464 36.877 1 35.759 1 34.452V5.335c0-1.679.745-3.078 2.888-3.264z" fill="#fff"/><path fill-rule="evenodd" clip-rule="evenodd" d="M30.448.11L3.888 2.07C1.745 2.258 1 3.657 1 5.336v29.117c0 1.307.464 2.425 1.584 3.92l6.243 8.118c1.026 1.307 1.959 1.587 3.917 1.495l30.843-1.868c2.608-.186 3.355-1.4 3.355-3.453V9.907c0-1.06-.418-1.366-1.652-2.271L36.6 1.509C34.55.018 33.71-.17 30.448.11zM13.442 9.371c-2.519.17-3.09.207-4.52-.956L5.284 5.524c-.37-.374-.184-.842.747-.935l25.533-1.865c2.144-.188 3.26.56 4.1 1.213l4.378 3.172c.187.095.653.653.093.653L13.768 9.35l-.326.022zm-2.937 33.013V14.577c0-1.215.373-1.775 1.49-1.869l30.285-1.773c1.027-.093 1.491.56 1.491 1.773V40.33c0 1.215-.187 2.242-1.864 2.334l-28.98 1.68c-1.677.093-2.422-.465-2.422-1.96zm28.608-26.317c.186.84 0 1.68-.84 1.776l-1.396.277v20.53c-1.213.653-2.33 1.026-3.263 1.026-1.491 0-1.864-.467-2.98-1.865L21.498 23.44v13.905l2.89.654s0 1.68-2.332 1.68l-6.427.373c-.187-.375 0-1.307.651-1.493l1.679-.466V19.71l-2.33-.188c-.187-.84.279-2.053 1.584-2.147l6.897-.464 9.504 14.556V18.588l-2.423-.278c-.187-1.029.558-1.776 1.49-1.867l6.431-.375z" fill="#000"/></g><defs><clipPath id="clip0_6722_17336"><path fill="#fff" d="M0 0H48V48H0z"/></clipPath></defs></svg>