<svg fill="none" height="48" width="48" xmlns="http://www.w3.org/2000/svg" xmlns:xlink="http://www.w3.org/1999/xlink"><clipPath id="a"><path d="m0 0h48v48h-48z"/></clipPath><g clip-path="url(#a)"><path d="m12.672 27.6h-12.672v.672c0 .144 0 .288.048.432v.096c0 .144.048.288.048.48v.048c0 .144.048.336.048.48.144 1.008.384 2.016.672 2.976.048.144.096.288.144.48v.096l.144.432c0 .048.048.048.048.096.048.096.096.24.144.336 0 .048.048.096.048.144.096.096.144.192.192.288s.048.144.096.24.048.144.096.24l.144.288s0 .096.048.144c.048.096.096.24.144.336 0 .048.048.096.048.096.048.144.144.24.192.384 0 0 0 .048.048.048.096.144.144.288.24.432 0 .048.048.048.048.096l10.8-6.528h.048c-.432-.912-.72-1.872-.816-2.832z" fill="#93d500"/><path d="m15.792 33.408-8.928 8.976.144.144c.096.096.192.144.24.24.048.048.096.096.144.096.096.096.192.192.288.24.048 0 .048.048.096.048.096.096.24.192.336.288 0 0 .048 0 .048.048.144.096.24.192.384.288.528.384 1.104.768 1.68 1.152 0 0 .048 0 .048.048.096.048.24.144.336.192a.364.364 0 0 0 .192.096.364.364 0 0 0 .192.096c.096.048.24.144.336.192 0 0 .048 0 .048.048.336.192.672.336 1.008.48l.336-.768 4.464-10.896v-.048c-.48-.288-.96-.576-1.392-.96z" fill="#4d5a31"/><path d="m14.88 32.544c-.096-.096-.192-.24-.288-.336s-.144-.192-.24-.288a1.459 1.459 0 0 1 -.24-.336c-.096-.096-.144-.24-.24-.384l-10.8 6.528c.144.288.336.528.528.816v.096l.048.048c.192.288.384.528.576.816.096.096.192.24.24.336 0 0 0 .048.048.048.096.096.192.24.288.336 0 .048.048.048.048.096.096.096.192.192.24.288.048.048.096.096.096.144.096.096.144.192.24.24l.144.144.048.048c.048.048.096.144.144.192l.048.048.288.288 8.928-8.928c.048-.048-.048-.144-.144-.24z" fill="#6ba43a"/><path d="m26.688 33.408c-.096.096-.192.144-.288.24v.048l6.528 10.8c.288-.192.576-.384.912-.624.624-.48 1.248-.96 1.824-1.488z" fill="#4d5a31"/><g fill="#93d500"><path d="m32.16 44.976c.048 0 .048-.048.096-.048-.048.048-.096.048-.096.048z"/><path d="m32.16 44.976c.048 0 .048-.048.096-.048-.048.048-.096.048-.096.048z"/><path d="m32.016 44.592-.24-.384-6.096-10.08c-.144.096-.24.144-.384.192s-.24.144-.384.192c-1.152.576-2.448.816-3.696.816-.816 0-1.68-.096-2.448-.336a3.307 3.307 0 0 1 -.384-.144c-.144-.048-.288-.096-.384-.144l-4.512 10.896-.192.432-.144.384h.096c.096.048.192.096.336.144s.288.096.384.144c.048.048.144.048.192.096 1.392.48 2.88.864 4.32 1.056h.384c.096 0 .24.048.336.048h.096c.144 0 .288.048.432.048h1.584c1.2 0 2.352-.096 3.504-.288h.048c.144 0 .24-.048.384-.048.048 0 .144-.048.192-.048s.144-.048.24-.048c.144-.048.24-.048.384-.096h.048c1.776-.432 3.504-1.056 5.088-1.92.096-.048.192-.096.336-.192.144-.048.24-.144.384-.192a1.05 1.05 0 0 0 .24-.144c.048 0 .048-.048.096-.048zm-16.224-24.528c.096-.096.192-.144.288-.24v-.048l-6.528-10.8c-.288.192-.624.384-.912.624-.624.48-1.248.96-1.824 1.488z"/></g><path d="m6.24 11.712-.288.288-.288.288c-.672.72-1.248 1.44-1.824 2.256-.048.048-.048.096-.096.096-.048.096-.144.192-.192.288s-.144.192-.192.288c0 .048-.048.048-.048.096a21.035 21.035 0 0 0 -3.312 10.56v.864h12.624v-.432-.432c.144-1.632.816-3.264 1.92-4.608.096-.096.192-.192.288-.336.096-.096.192-.24.288-.336zm26.064-3.12s-.048 0-.048-.048c-.096-.048-.24-.144-.336-.192a.364.364 0 0 0 -.192-.096.364.364 0 0 0 -.192-.096c-.096-.048-.24-.144-.336-.192 0 0-.048 0-.048-.048a19 19 0 0 0 -2.256-1.008h-.048c-.192-.048-.336-.144-.528-.192a21.297 21.297 0 0 0 -4.272-1.008h-.384c-.096 0-.24-.048-.336-.048h-.096c-.144 0-.288-.048-.432-.048h-.672v12.672a6.562 6.562 0 0 1 1.92.432l9.312-9.312c-.336-.384-.72-.624-1.056-.816z" fill="#4d5a31"/><path d="m20.832 5.472h-.432c-.912.048-1.776.144-2.688.288h-.048c-.144 0-.24.048-.384.048-.048 0-.144.048-.192.048-.096 0-.144.048-.24.048-.144.048-.24.048-.336.096h-.048c-1.776.432-3.504 1.056-5.088 1.92-.096.048-.192.096-.336.192-.144.048-.24.144-.384.192l-.288.144s-.048.048-.096.048l.24.384 6.288 10.464c.144-.096.24-.144.384-.192s.24-.144.384-.192c.912-.432 1.872-.672 2.832-.816.144 0 .288-.048.432-.048h.432v-12.624z" fill="#6ba43a"/><path d="m42.48 25.68v-.336-.192c0-.144 0-.288-.048-.384v-.096c0-.144-.048-.288-.048-.432v-.048c0-.144-.048-.336-.048-.48a20.571 20.571 0 0 0 -.672-2.976l-.144-.432v-.048l-.144-.432c0-.048-.048-.096-.048-.096-.048-.096-.096-.24-.144-.336 0-.048-.048-.096-.048-.144-.048-.096-.096-.192-.096-.288-.048-.096-.048-.144-.096-.24s-.048-.144-.096-.24l-.144-.288c0-.048-.048-.096-.096-.144-.048-.096-.096-.24-.144-.336 0-.048-.048-.048-.048-.096-.048-.144-.144-.24-.192-.384 0 0 0-.048-.048-.048-.096-.144-.144-.288-.24-.432-.384-.672-.768-1.344-1.2-1.968l-9.312 9.168c.192.624.336 1.248.432 1.92h12.672c-.048-.048-.048-.096-.048-.192z" fill="#4d5a31"/><path d="m29.856 26.736v.864c-.144 1.632-.816 3.264-1.92 4.608-.096.096-.192.192-.288.336-.096.096-.192.24-.288.336l8.928 8.88.288-.288.288-.288c.672-.72 1.248-1.488 1.824-2.256 0-.048.048-.048.048-.096.048-.096.144-.192.192-.288s.096-.192.192-.24c.048-.048.048-.096.096-.144a21.035 21.035 0 0 0 3.312-10.56v-.432-.432z" fill="#6ba43a"/><path d="m46.272 1.728a5.91 5.91 0 0 0 -8.352 0c-1.824 1.824-2.208 4.608-1.104 6.816l-12.912 12.912c-2.208-1.104-4.992-.72-6.816 1.104a5.91 5.91 0 0 0 0 8.352 5.91 5.91 0 0 0 8.352 0c1.824-1.824 2.208-4.608 1.104-6.816l12.912-12.912c2.208 1.104 4.992.72 6.816-1.104a5.91 5.91 0 0 0 0-8.352z" fill="#424143"/></g></svg>