<svg width="48" height="48" fill="none" xmlns="http://www.w3.org/2000/svg"><g clip-path="url(#clip0_6722_17330)"><path d="M45.422 26.276c-3.32 4.156-6.907 8.905-14.078 8.905-6.407 0-8.793-5.613-8.96-10.172 1.403 2.948 4.147 5.335 8.428 5.225 8.235-.264 13.88-7.652 13.88-14.38C44.691 7.804 38.647 2 28.155 2c-7.504 0-16.8 2.837-22.91 7.322C5.18 13.94 7.77 19.943 8.7 19.283c5.296-3.783 9.496-6.218 13.57-7.439C16.239 18.524 1.77 34.034 0 36.764.2 39.272 3.32 46 4.848 46c.464 0 .863-.264 1.328-.726 4.361-4.868 7.917-9.233 11.08-13.44C17.7 38 20.752 45.538 29.285 45.538c7.637 0 15.207-5.475 18.66-17.81.398-1.518-1.461-2.706-2.523-1.452zm-8.7-9.961c0 3.892-3.851 5.805-7.37 5.805-1.882 0-3.327-.49-4.47-1.129 2.103-3.163 4.185-6.406 6.421-9.879 3.944.663 5.42 2.84 5.42 5.203z" fill="#FF4438"/></g><defs><clipPath id="clip0_6722_17330"><path fill="#fff" transform="translate(0 2)" d="M0 0H48V44H0z"/></clipPath></defs></svg>