<svg fill="none" height="48" width="48" xmlns="http://www.w3.org/2000/svg"><clipPath id="a"><path d="M0 0h48v48H0z"/></clipPath><g clip-path="url(#a)"><path d="M23.04 18.096c0 2.688-2.256 4.944-4.944 4.944s-4.944-2.256-4.944-4.944 2.208-4.992 4.944-4.992 4.944 2.256 4.944 4.992zm-4.944 6.864c-2.736 0-4.944 2.256-4.944 4.944s2.208 4.992 4.944 4.992 4.944-2.256 4.944-4.992-2.256-4.944-4.944-4.944zM48 24c0 13.296-10.704 24-24 24S0 37.296 0 24 10.704 0 24 0s24 10.704 24 24zm-6.384 0c0-9.744-7.824-17.616-17.616-17.616S6.384 14.256 6.384 24 14.256 41.616 24 41.616 41.616 33.744 41.616 24zm-11.712.96c-2.688 0-4.944 2.256-4.944 4.944s2.256 4.944 4.944 4.944 4.992-2.208 4.992-4.944-2.256-4.944-4.992-4.944zm0-11.856c-2.688 0-4.944 2.256-4.944 4.992s2.256 4.944 4.944 4.944 4.944-2.256 4.944-4.944-2.208-4.992-4.944-4.992z" fill="#f22f46"/></g></svg>