<?xml version="1.0" encoding="utf-8"?>
<!-- Generator: Adobe Illustrator 27.8.0, SVG Export Plug-In . SVG Version: 6.00 Build 0)  -->
<svg version="1.1" id="Budibase_Logo" xmlns="http://www.w3.org/2000/svg" xmlns:xlink="http://www.w3.org/1999/xlink" x="0px"
	 y="0px" viewBox="0 0 265 265" style="enable-background:new 0 0 265 265;" xml:space="preserve">
<style type="text/css">
	.st0{fill:#FFFFFF;}
</style>
<path class="st0" d="M158.2,8.6v108c0,4.7,3.8,8.6,8.6,8.6h47c4.2,0,8.2-2,10.8-5.4l38.3-50.9c2.8-3.7,2.8-8.8,0-12.5L224.6,5.4
	C222,2,218,0,213.8,0h-47C162,0,158.2,3.8,158.2,8.6z"/>
<path class="st0" d="M158.2,148.4v108c0,4.7,3.8,8.6,8.6,8.6h47c4.2,0,8.2-2,10.8-5.4l38.3-50.9c2.8-3.7,2.8-8.8,0-12.5l-38.3-50.9
	c-2.5-3.4-6.5-5.4-10.8-5.4h-47C162,139.8,158.2,143.7,158.2,148.4z"/>
<path class="st0" d="M0,8.6v108c0,4.7,3.8,8.6,8.6,8.6h101c4.2,0,8.2-2,10.8-5.4l35.5-47.3c4.4-5.9,4.4-14,0-19.9L120.3,5.4
	C117.8,2,113.8,0,109.5,0H8.6C3.8,0,0,3.8,0,8.6z"/>
<path class="st0" d="M0,148.4v108c0,4.7,3.8,8.6,8.6,8.6h101c4.2,0,8.2-2,10.8-5.4l35.5-47.3c4.4-5.9,4.4-14,0-19.9l-35.5-47.3
	c-2.5-3.4-6.5-5.4-10.8-5.4H8.6C3.8,139.8,0,143.7,0,148.4z"/>
</svg>
